<svg width="121" height="282" viewBox="0 0 121 282" fill="none" xmlns="http://www.w3.org/2000/svg">
<path d="M27.768 171.054L27.768 35.0005C27.768 25.7179 31.4555 16.8155 38.0192 10.2518C44.583 3.68798 53.4854 0.000488281 62.768 0.000488281C72.0506 0.000488281 80.9529 3.68798 87.5167 10.2518C94.0805 16.8155 97.768 25.7179 97.768 35.0005L97.768 173.97C106.845 181.089 113.677 190.673 117.448 201.574C121.219 212.475 121.768 224.232 119.03 235.438C116.291 246.643 110.382 256.822 102.008 264.755C93.6343 272.689 83.1517 278.041 71.815 280.17C67.7003 281.262 63.4222 281.601 59.187 281.17C46.4152 280.838 34.0831 276.437 23.9858 268.609C13.8886 260.781 6.55326 249.935 3.04774 237.649C-0.457771 225.364 0.0494995 212.28 4.49571 200.302C8.94193 188.325 17.095 178.079 27.768 171.056V171.054Z" fill="url(#paint0_linear_7_2800)"/>
<defs>
<linearGradient id="paint0_linear_7_2800" x1="105.625" y1="113.948" x2="-12.4232" y2="141.912" gradientUnits="userSpaceOnUse">
<stop stop-color="white" stop-opacity="0.596"/>
<stop offset="1" stop-color="#F7F7F7" stop-opacity="0.204"/>
</linearGradient>
</defs>
</svg>
