<svg width="270" height="220" viewBox="0 0 270 220" fill="none" xmlns="http://www.w3.org/2000/svg">
<g id="Component 2">
<g id="Union" filter="url(#filter0_bd_4_4415)">
<mask id="path-1-inside-1_4_4415" fill="white">
<path fill-rule="evenodd" clip-rule="evenodd" d="M179.766 124.889C179.859 124.89 179.953 124.891 180.046 124.891C193.326 124.891 204.092 114.142 204.092 100.883C204.092 87.6235 193.326 76.8747 180.046 76.8747C179.953 76.8747 179.859 76.8752 179.766 76.8763V76.8747H173.554C173.779 75.2317 173.895 73.5542 173.895 71.8497C173.895 51.4982 157.37 35 136.987 35C116.603 35 100.079 51.4982 100.079 71.8497C100.079 73.77 100.226 75.656 100.51 77.4971C98.7544 77.0899 96.9254 76.8747 95.0461 76.8747C81.7658 76.8747 71 87.6235 71 100.883C71 114.142 81.7658 124.891 95.0461 124.891C95.1398 124.891 95.2334 124.89 95.3269 124.889L95.3256 124.891H179.766V124.889Z"/>
</mask>
<path fill-rule="evenodd" clip-rule="evenodd" d="M179.766 124.889C179.859 124.89 179.953 124.891 180.046 124.891C193.326 124.891 204.092 114.142 204.092 100.883C204.092 87.6235 193.326 76.8747 180.046 76.8747C179.953 76.8747 179.859 76.8752 179.766 76.8763V76.8747H173.554C173.779 75.2317 173.895 73.5542 173.895 71.8497C173.895 51.4982 157.37 35 136.987 35C116.603 35 100.079 51.4982 100.079 71.8497C100.079 73.77 100.226 75.656 100.51 77.4971C98.7544 77.0899 96.9254 76.8747 95.0461 76.8747C81.7658 76.8747 71 87.6235 71 100.883C71 114.142 81.7658 124.891 95.0461 124.891C95.1398 124.891 95.2334 124.89 95.3269 124.889L95.3256 124.891H179.766V124.889Z" fill="url(#paint0_linear_4_4415)" shape-rendering="crispEdges"/>
<path d="M179.766 124.889L179.789 122.89C179.255 122.883 178.74 123.091 178.36 123.467C177.98 123.843 177.766 124.355 177.766 124.889H179.766ZM179.766 76.8763H177.766C177.766 77.4106 177.98 77.9228 178.36 78.2985C178.74 78.6742 179.255 78.8822 179.789 78.8761L179.766 76.8763ZM179.766 76.8747H181.766C181.766 75.7701 180.871 74.8747 179.766 74.8747V76.8747ZM173.554 76.8747L171.573 76.604C171.495 77.1764 171.668 77.7545 172.048 78.1897C172.427 78.6249 172.977 78.8747 173.554 78.8747V76.8747ZM100.51 77.4971L100.058 79.4454C100.704 79.5953 101.383 79.4148 101.87 78.9634C102.356 78.512 102.587 77.8486 102.486 77.1926L100.51 77.4971ZM95.3269 124.889L96.8959 126.13C97.3739 125.525 97.4618 124.699 97.1219 124.007C96.782 123.316 96.0748 122.881 95.304 122.889L95.3269 124.889ZM95.3256 124.891L93.7566 123.651C93.2812 124.252 93.1914 125.073 93.5255 125.763C93.8597 126.453 94.5589 126.891 95.3256 126.891V124.891ZM179.766 124.891V126.891C180.871 126.891 181.766 125.996 181.766 124.891H179.766ZM179.744 126.889C179.844 126.89 179.945 126.891 180.046 126.891V122.891C179.96 122.891 179.875 122.89 179.789 122.89L179.744 126.889ZM180.046 126.891C194.428 126.891 206.092 115.25 206.092 100.883H202.092C202.092 113.035 192.225 122.891 180.046 122.891V126.891ZM206.092 100.883C206.092 86.5159 194.428 74.8747 180.046 74.8747V78.8747C192.225 78.8747 202.092 88.731 202.092 100.883H206.092ZM180.046 74.8747C179.945 74.8747 179.844 74.8752 179.744 74.8764L179.789 78.8761C179.875 78.8752 179.96 78.8747 180.046 78.8747V74.8747ZM177.766 76.8747V76.8763H181.766V76.8747H177.766ZM173.554 78.8747H179.766V74.8747H173.554V78.8747ZM175.536 77.1453C175.773 75.4129 175.895 73.645 175.895 71.8497H171.895C171.895 73.4634 171.785 75.0505 171.573 76.604L175.536 77.1453ZM175.895 71.8497C175.895 50.3906 158.472 33 136.987 33V37C156.269 37 171.895 52.6057 171.895 71.8497H175.895ZM136.987 33C115.502 33 98.0789 50.3906 98.0789 71.8497H102.079C102.079 52.6057 117.705 37 136.987 37V33ZM98.0789 71.8497C98.0789 73.8723 98.2339 75.8601 98.5329 77.8016L102.486 77.1926C102.218 75.4519 102.079 73.6677 102.079 71.8497H98.0789ZM100.962 75.5488C99.0592 75.1075 97.0786 74.8747 95.0461 74.8747V78.8747C96.7722 78.8747 98.4496 79.0723 100.058 79.4454L100.962 75.5488ZM95.0461 74.8747C80.6642 74.8747 69 86.5159 69 100.883H73C73 88.731 82.8674 78.8747 95.0461 78.8747V74.8747ZM69 100.883C69 115.25 80.6642 126.891 95.0461 126.891V122.891C82.8674 122.891 73 113.035 73 100.883H69ZM95.0461 126.891C95.1474 126.891 95.2486 126.89 95.3497 126.889L95.304 122.889C95.2182 122.89 95.1322 122.891 95.0461 122.891V126.891ZM96.8946 126.131L96.8959 126.13L93.7579 123.649L93.7566 123.651L96.8946 126.131ZM179.766 122.891H95.3256V126.891H179.766V122.891ZM177.766 124.889V124.891H181.766V124.889H177.766Z" fill="url(#paint1_linear_4_4415)" mask="url(#path-1-inside-1_4_4415)"/>
</g>
<g id="Union_2" filter="url(#filter1_bd_4_4415)">
<mask id="path-3-inside-2_4_4415" fill="white">
<path fill-rule="evenodd" clip-rule="evenodd" d="M223.42 99.962C223.487 99.9628 223.555 99.9632 223.622 99.9632C233.22 99.9632 241 92.1951 241 82.6128C241 73.0304 233.22 65.2623 223.622 65.2623C223.555 65.2623 223.487 65.2627 223.42 65.2635V65.2623H218.931C219.093 64.075 219.177 62.8627 219.177 61.6309C219.177 46.9231 207.235 35 192.504 35C177.773 35 165.831 46.9231 165.831 61.6309C165.831 63.0187 165.937 64.3817 166.142 65.7122C164.874 65.4179 163.552 65.2623 162.194 65.2623C152.596 65.2623 144.816 73.0304 144.816 82.6128C144.816 92.1951 152.596 99.9632 162.194 99.9632C162.261 99.9632 162.329 99.9628 162.396 99.962L162.396 99.9632H223.42V99.962Z"/>
</mask>
<path fill-rule="evenodd" clip-rule="evenodd" d="M223.42 99.962C223.487 99.9628 223.555 99.9632 223.622 99.9632C233.22 99.9632 241 92.1951 241 82.6128C241 73.0304 233.22 65.2623 223.622 65.2623C223.555 65.2623 223.487 65.2627 223.42 65.2635V65.2623H218.931C219.093 64.075 219.177 62.8627 219.177 61.6309C219.177 46.9231 207.235 35 192.504 35C177.773 35 165.831 46.9231 165.831 61.6309C165.831 63.0187 165.937 64.3817 166.142 65.7122C164.874 65.4179 163.552 65.2623 162.194 65.2623C152.596 65.2623 144.816 73.0304 144.816 82.6128C144.816 92.1951 152.596 99.9632 162.194 99.9632C162.261 99.9632 162.329 99.9628 162.396 99.962L162.396 99.9632H223.42V99.962Z" fill="url(#paint2_linear_4_4415)" shape-rendering="crispEdges"/>
<path d="M223.42 99.962L223.443 97.9622C222.908 97.9561 222.394 98.1641 222.014 98.5398C221.634 98.9155 221.42 99.4277 221.42 99.962H223.42ZM223.42 65.2635H221.42C221.42 65.7979 221.634 66.31 222.014 66.6857C222.394 67.0614 222.908 67.2694 223.443 67.2634L223.42 65.2635ZM223.42 65.2623H225.42C225.42 64.1578 224.525 63.2623 223.42 63.2623V65.2623ZM218.931 65.2623L216.949 64.9917C216.871 65.564 217.044 66.1422 217.424 66.5774C217.804 67.0126 218.353 67.2623 218.931 67.2623V65.2623ZM166.142 65.7122L165.69 67.6604C166.337 67.8104 167.016 67.6299 167.502 67.1785C167.989 66.7271 168.22 66.0637 168.119 65.4077L166.142 65.7122ZM162.396 99.962L163.966 101.201C164.444 100.596 164.531 99.7711 164.191 99.0796C163.851 98.3881 163.144 97.9534 162.374 97.9622L162.396 99.962ZM162.396 99.9632L160.826 98.7239C160.351 99.3255 160.261 100.146 160.596 100.835C160.93 101.525 161.629 101.963 162.396 101.963V99.9632ZM223.42 99.9632V101.963C224.525 101.963 225.42 101.068 225.42 99.9632H223.42ZM223.397 101.962C223.472 101.963 223.547 101.963 223.622 101.963V97.9632C223.562 97.9632 223.503 97.9628 223.443 97.9622L223.397 101.962ZM223.622 101.963C234.321 101.963 243 93.3027 243 82.6128H239C239 91.0876 232.118 97.9632 223.622 97.9632V101.963ZM243 82.6128C243 71.9228 234.321 63.2623 223.622 63.2623V67.2623C232.118 67.2623 239 74.1379 239 82.6128H243ZM223.622 63.2623C223.547 63.2623 223.472 63.2628 223.397 63.2636L223.443 67.2634C223.502 67.2627 223.562 67.2623 223.622 67.2623V63.2623ZM221.42 65.2623V65.2635H225.42V65.2623H221.42ZM218.931 67.2623H223.42V63.2623H218.931V67.2623ZM220.912 65.533C221.087 64.2561 221.177 62.9535 221.177 61.6309H217.177C217.177 62.7719 217.099 63.8938 216.949 64.9917L220.912 65.533ZM221.177 61.6309C221.177 45.8155 208.336 33 192.504 33V37C206.133 37 217.177 48.0306 217.177 61.6309H221.177ZM192.504 33C176.671 33 163.831 45.8155 163.831 61.6309H167.831C167.831 48.0306 178.874 37 192.504 37V33ZM163.831 61.6309C163.831 63.121 163.945 64.5857 164.165 66.0167L168.119 65.4077C167.929 64.1776 167.831 62.9164 167.831 61.6309H163.831ZM166.594 63.7639C165.178 63.4355 163.705 63.2623 162.194 63.2623V67.2623C163.399 67.2623 164.569 67.4003 165.69 67.6604L166.594 63.7639ZM162.194 63.2623C151.494 63.2623 142.816 71.9228 142.816 82.6128H146.816C146.816 74.1379 153.698 67.2623 162.194 67.2623V63.2623ZM142.816 82.6128C142.816 93.3027 151.494 101.963 162.194 101.963V97.9632C153.698 97.9632 146.816 91.0876 146.816 82.6128H142.816ZM162.194 101.963C162.269 101.963 162.344 101.963 162.419 101.962L162.374 97.9622C162.314 97.9628 162.254 97.9632 162.194 97.9632V101.963ZM163.965 101.202L163.966 101.201L160.827 98.7227L160.826 98.7239L163.965 101.202ZM223.42 97.9632H162.396V101.963H223.42V97.9632ZM221.42 99.962V99.9632H225.42V99.962H221.42Z" fill="url(#paint3_linear_4_4415)" mask="url(#path-3-inside-2_4_4415)"/>
</g>
<g id="Group 5">
<g id="Group 3" filter="url(#filter2_bdd_4_4415)">
<g id="Group 4">
<path id="Rectangle 1" d="M124.316 110.246C125.913 108.199 129.192 109.195 129.377 111.783L130.034 120.957C130.352 125.415 126.099 128.809 121.821 127.51C117.544 126.211 115.904 121.027 118.654 117.502L124.316 110.246Z" fill="url(#paint4_linear_4_4415)" stroke="url(#paint5_linear_4_4415)" stroke-width="2"/>
<path id="Rectangle 2" d="M156.475 110.246C158.072 108.199 161.351 109.195 161.536 111.783L162.193 120.957C162.511 125.415 158.257 128.809 153.98 127.51C149.703 126.211 148.062 121.027 150.813 117.502L156.475 110.246Z" fill="url(#paint6_linear_4_4415)" stroke="url(#paint7_linear_4_4415)" stroke-width="2"/>
<path id="Rectangle 3" d="M188.634 110.246C190.231 108.199 193.51 109.195 193.695 111.783L194.351 120.957C194.67 125.415 190.416 128.809 186.139 127.51C181.861 126.211 180.221 121.027 182.972 117.502L188.634 110.246Z" fill="url(#paint8_linear_4_4415)" stroke="url(#paint9_linear_4_4415)" stroke-width="2"/>
</g>
</g>
<g id="Group 4_2" filter="url(#filter3_bdd_4_4415)">
<g id="Group 4_3">
<path id="Rectangle 1_2" d="M132.802 135.661C134.399 133.615 137.678 134.61 137.863 137.198L138.519 146.373C138.838 150.83 134.584 154.224 130.307 152.925C126.029 151.626 124.389 146.442 127.14 142.917L132.802 135.661Z" fill="url(#paint10_linear_4_4415)" stroke="url(#paint11_linear_4_4415)" stroke-width="2"/>
<path id="Rectangle 2_2" d="M159.972 135.661C161.569 133.615 164.848 134.61 165.033 137.198L165.689 146.373C166.008 150.83 161.754 154.224 157.477 152.925C153.199 151.626 151.559 146.442 154.31 142.917L159.972 135.661Z" fill="url(#paint12_linear_4_4415)" stroke="url(#paint13_linear_4_4415)" stroke-width="2"/>
</g>
</g>
</g>
</g>
<defs>
<filter id="filter0_bd_4_4415" x="0" y="0" width="233.092" height="189.891" filterUnits="userSpaceOnUse" color-interpolation-filters="sRGB">
<feFlood flood-opacity="0" result="BackgroundImageFix"/>
<feGaussianBlur in="BackgroundImageFix" stdDeviation="7"/>
<feComposite in2="SourceAlpha" operator="in" result="effect1_backgroundBlur_4_4415"/>
<feColorMatrix in="SourceAlpha" type="matrix" values="0 0 0 0 0 0 0 0 0 0 0 0 0 0 0 0 0 0 127 0" result="hardAlpha"/>
<feOffset dx="-21" dy="15"/>
<feGaussianBlur stdDeviation="25"/>
<feComposite in2="hardAlpha" operator="out"/>
<feColorMatrix type="matrix" values="0 0 0 0 0.113725 0 0 0 0 0.14902 0 0 0 0 0.27451 0 0 0 0.25 0"/>
<feBlend mode="normal" in2="effect1_backgroundBlur_4_4415" result="effect2_dropShadow_4_4415"/>
<feBlend mode="normal" in="SourceGraphic" in2="effect2_dropShadow_4_4415" result="shape"/>
</filter>
<filter id="filter1_bd_4_4415" x="73.8157" y="0" width="196.184" height="164.963" filterUnits="userSpaceOnUse" color-interpolation-filters="sRGB">
<feFlood flood-opacity="0" result="BackgroundImageFix"/>
<feGaussianBlur in="BackgroundImageFix" stdDeviation="7"/>
<feComposite in2="SourceAlpha" operator="in" result="effect1_backgroundBlur_4_4415"/>
<feColorMatrix in="SourceAlpha" type="matrix" values="0 0 0 0 0 0 0 0 0 0 0 0 0 0 0 0 0 0 127 0" result="hardAlpha"/>
<feOffset dx="-21" dy="15"/>
<feGaussianBlur stdDeviation="25"/>
<feComposite in2="hardAlpha" operator="out"/>
<feColorMatrix type="matrix" values="0 0 0 0 0.113438 0 0 0 0 0.148981 0 0 0 0 0.275 0 0 0 0.25 0"/>
<feBlend mode="normal" in2="effect1_backgroundBlur_4_4415" result="effect2_dropShadow_4_4415"/>
<feBlend mode="normal" in="SourceGraphic" in2="effect2_dropShadow_4_4415" result="shape"/>
</filter>
<filter id="filter2_bdd_4_4415" x="45.3015" y="60.1489" width="191.067" height="133.642" filterUnits="userSpaceOnUse" color-interpolation-filters="sRGB">
<feFlood flood-opacity="0" result="BackgroundImageFix"/>
<feGaussianBlur in="BackgroundImageFix" stdDeviation="7"/>
<feComposite in2="SourceAlpha" operator="in" result="effect1_backgroundBlur_4_4415"/>
<feColorMatrix in="SourceAlpha" type="matrix" values="0 0 0 0 0 0 0 0 0 0 0 0 0 0 0 0 0 0 127 0" result="hardAlpha"/>
<feOffset dx="-21" dy="15"/>
<feGaussianBlur stdDeviation="25"/>
<feComposite in2="hardAlpha" operator="out"/>
<feColorMatrix type="matrix" values="0 0 0 0 0.113438 0 0 0 0 0.148981 0 0 0 0 0.275 0 0 0 0.25 0"/>
<feBlend mode="normal" in2="effect1_backgroundBlur_4_4415" result="effect2_dropShadow_4_4415"/>
<feColorMatrix in="SourceAlpha" type="matrix" values="0 0 0 0 0 0 0 0 0 0 0 0 0 0 0 0 0 0 127 0" result="hardAlpha"/>
<feOffset dy="-7"/>
<feGaussianBlur stdDeviation="20.5"/>
<feComposite in2="hardAlpha" operator="out"/>
<feColorMatrix type="matrix" values="0 0 0 0 0.1375 0 0 0 0 0.74125 0 0 0 0 1 0 0 0 0.3 0"/>
<feBlend mode="normal" in2="effect2_dropShadow_4_4415" result="effect3_dropShadow_4_4415"/>
<feBlend mode="normal" in="SourceGraphic" in2="effect3_dropShadow_4_4415" result="shape"/>
</filter>
<filter id="filter3_bdd_4_4415" x="53.7869" y="85.5642" width="153.919" height="133.642" filterUnits="userSpaceOnUse" color-interpolation-filters="sRGB">
<feFlood flood-opacity="0" result="BackgroundImageFix"/>
<feGaussianBlur in="BackgroundImageFix" stdDeviation="7"/>
<feComposite in2="SourceAlpha" operator="in" result="effect1_backgroundBlur_4_4415"/>
<feColorMatrix in="SourceAlpha" type="matrix" values="0 0 0 0 0 0 0 0 0 0 0 0 0 0 0 0 0 0 127 0" result="hardAlpha"/>
<feOffset dx="-21" dy="15"/>
<feGaussianBlur stdDeviation="25"/>
<feComposite in2="hardAlpha" operator="out"/>
<feColorMatrix type="matrix" values="0 0 0 0 0.113438 0 0 0 0 0.148981 0 0 0 0 0.275 0 0 0 0.25 0"/>
<feBlend mode="normal" in2="effect1_backgroundBlur_4_4415" result="effect2_dropShadow_4_4415"/>
<feColorMatrix in="SourceAlpha" type="matrix" values="0 0 0 0 0 0 0 0 0 0 0 0 0 0 0 0 0 0 127 0" result="hardAlpha"/>
<feOffset dy="-7"/>
<feGaussianBlur stdDeviation="20.5"/>
<feComposite in2="hardAlpha" operator="out"/>
<feColorMatrix type="matrix" values="0 0 0 0 0.1375 0 0 0 0 0.74125 0 0 0 0 1 0 0 0 0.3 0"/>
<feBlend mode="normal" in2="effect2_dropShadow_4_4415" result="effect3_dropShadow_4_4415"/>
<feBlend mode="normal" in="SourceGraphic" in2="effect3_dropShadow_4_4415" result="shape"/>
</filter>
<linearGradient id="paint0_linear_4_4415" x1="137.546" y1="6.24606" x2="137.546" y2="137.453" gradientUnits="userSpaceOnUse">
<stop stop-color="white"/>
<stop offset="1" stop-color="white" stop-opacity="0"/>
</linearGradient>
<linearGradient id="paint1_linear_4_4415" x1="137.546" y1="35" x2="137.546" y2="124.891" gradientUnits="userSpaceOnUse">
<stop stop-color="white"/>
<stop offset="1" stop-color="white" stop-opacity="0"/>
</linearGradient>
<linearGradient id="paint2_linear_4_4415" x1="197.381" y1="36.9542" x2="197.381" y2="107.304" gradientUnits="userSpaceOnUse">
<stop stop-color="white"/>
<stop offset="1" stop-color="white" stop-opacity="0"/>
</linearGradient>
<linearGradient id="paint3_linear_4_4415" x1="192.908" y1="35" x2="192.908" y2="99.9632" gradientUnits="userSpaceOnUse">
<stop stop-color="white"/>
<stop offset="1" stop-color="white" stop-opacity="0"/>
</linearGradient>
<linearGradient id="paint4_linear_4_4415" x1="129.664" y1="101.768" x2="121.553" y2="128.474" gradientUnits="userSpaceOnUse">
<stop stop-color="#138EFF"/>
<stop offset="1" stop-color="#00E0FF"/>
</linearGradient>
<linearGradient id="paint5_linear_4_4415" x1="129.664" y1="101.768" x2="121.553" y2="128.474" gradientUnits="userSpaceOnUse">
<stop stop-color="white"/>
<stop offset="1" stop-color="white" stop-opacity="0"/>
</linearGradient>
<linearGradient id="paint6_linear_4_4415" x1="161.823" y1="101.768" x2="153.712" y2="128.474" gradientUnits="userSpaceOnUse">
<stop stop-color="#138EFF"/>
<stop offset="1" stop-color="#00E0FF"/>
</linearGradient>
<linearGradient id="paint7_linear_4_4415" x1="161.823" y1="101.768" x2="153.712" y2="128.474" gradientUnits="userSpaceOnUse">
<stop stop-color="white"/>
<stop offset="1" stop-color="white" stop-opacity="0"/>
</linearGradient>
<linearGradient id="paint8_linear_4_4415" x1="193.982" y1="101.768" x2="185.871" y2="128.474" gradientUnits="userSpaceOnUse">
<stop stop-color="#138EFF"/>
<stop offset="1" stop-color="#00E0FF"/>
</linearGradient>
<linearGradient id="paint9_linear_4_4415" x1="193.982" y1="101.768" x2="185.871" y2="128.474" gradientUnits="userSpaceOnUse">
<stop stop-color="white"/>
<stop offset="1" stop-color="white" stop-opacity="0"/>
</linearGradient>
<linearGradient id="paint10_linear_4_4415" x1="138.149" y1="127.183" x2="130.039" y2="153.889" gradientUnits="userSpaceOnUse">
<stop stop-color="#138EFF"/>
<stop offset="1" stop-color="#00E0FF"/>
</linearGradient>
<linearGradient id="paint11_linear_4_4415" x1="138.149" y1="127.183" x2="130.039" y2="153.889" gradientUnits="userSpaceOnUse">
<stop stop-color="white"/>
<stop offset="1" stop-color="white" stop-opacity="0"/>
</linearGradient>
<linearGradient id="paint12_linear_4_4415" x1="165.319" y1="127.183" x2="157.209" y2="153.889" gradientUnits="userSpaceOnUse">
<stop stop-color="#138EFF"/>
<stop offset="1" stop-color="#00E0FF"/>
</linearGradient>
<linearGradient id="paint13_linear_4_4415" x1="165.319" y1="127.183" x2="157.209" y2="153.889" gradientUnits="userSpaceOnUse">
<stop stop-color="white"/>
<stop offset="1" stop-color="white" stop-opacity="0"/>
</linearGradient>
</defs>
</svg>
